<svg id="Camada_1" data-name="Camada 1" xmlns="http://www.w3.org/2000/svg" viewBox="0 0 100 100"><defs><style>.cls-1{fill:#8200ba;}.cls-2{fill:#fff;}.cls-3{fill:#fbfafc;}.cls-4{fill:#010002;}.cls-5{fill:#050505;}</style></defs><circle class="cls-1" cx="50" cy="50" r="50"/><circle class="cls-2" cx="48.88" cy="22.76" r="15.3"/><path class="cls-3" d="M50,48.51h0A27.61,27.61,0,0,1,77.61,76.12v4.35a4.6,4.6,0,0,1-4.6,4.6H27a4.6,4.6,0,0,1-4.6-4.6V76.12A27.61,27.61,0,0,1,50,48.51Z"/><ellipse class="cls-4" cx="54.85" cy="20.15" rx="2.61" ry="2.99"/><ellipse class="cls-4" cx="42.91" cy="20.15" rx="2.61" ry="2.99"/><path class="cls-5" d="M48.66,31.71a12.48,12.48,0,0,1-5.38-1.18A7.87,7.87,0,0,0,49,32.84a7.66,7.66,0,0,0,6.25-3A11.87,11.87,0,0,1,48.66,31.71Z"/></svg>